<svg xmlns="http://www.w3.org/2000/svg">
  <symbol fill="currentColor" viewBox="0 0 24 24" id="location"
    xmlns="http://www.w3.org/2000/svg">
    <path d="M10 20S3 10.87 3 7a7 7 0 1 1 14 0c0 3.87-7 13-7 13zm0-11a2 2 0 1 0 0-4 2 2 0 0 0 0 4z"/>
  </symbol>
  <symbol fill="none" viewBox="0 0 24 24" id="posts" stroke="currentColor" stroke-width="2" stroke-linecap="round" stroke-linejoin="round"
    xmlns="http://www.w3.org/2000/svg">
    <path d="M21 15a2 2 0 0 1-2 2H7l-4 4V5a2 2 0 0 1 2-2h14a2 2 0 0 1 2 2z"></path>
  </symbol>
  <symbol fill="none" viewBox="0 0 24 24" id="followers" stroke="currentColor" stroke-width="2" stroke-linecap="round" stroke-linejoin="round"
    xmlns="http://www.w3.org/2000/svg">
    <path d="M16 21v-2a4 4 0 0 0-4-4H5a4 4 0 0 0-4 4v2"></path>
    <circle cx="8.5" cy="7" r="4"></circle>
    <line x1="20" y1="8" x2="20" y2="14"></line>
    <line x1="23" y1="11" x2="17" y2="11"></line>
  </symbol>
  <symbol fill="none" viewBox="0 0 24 24" id="following" stroke="currentColor" stroke-width="2" stroke-linecap="round" stroke-linejoin="round"
    xmlns="http://www.w3.org/2000/svg">
    <path d="M16 21v-2a4 4 0 0 0-4-4H5a4 4 0 0 0-4 4v2"></path><circle cx="8.5" cy="7" r="4"></circle><polyline points="17 11 19 13 23 9"></polyline>
  </symbol>
</svg>
